<svg width="984" height="984" viewBox="0 0 984 984" version="1.1" xmlns="http://www.w3.org/2000/svg" xmlns:xlink="http://www.w3.org/1999/xlink">
    <g id="icon" stroke="none" stroke-width="1" fill="none" fill-rule="evenodd">
        <path d="M531,484 L672,403.338999 L672,245 L531,324.395373 L531,484 L531,484 Z M447,483 L447,323.953229 L308,244 L308,403.418998 L447,483 L447,483 Z M757,871 L900,788.939918 L900,626 L757,706.772501 L757,871 L757,871 Z M673,867 L673,705.908789 L536,627 L536,788.458577 L673,867 L673,867 Z M305,871 L448,788.93756 L448,625 L305,705.774822 L305,871 L305,871 Z M221,867 L221,704.911402 L84,626 L84,788.455975 L221,867 L221,867 Z M632,171.469452 L490.077006,90 L349,170.983822 L489.476317,252 L632,171.469452 L632,171.469452 Z M580,556.063401 L715.998522,635 L856,555.387398 L718.585061,476 L580,556.063401 L580,556.063401 Z M403,554.883474 L265.59317,476 L127,555.564537 L262.990367,634 L403,554.883474 Z M755.938612,401.119793 L963.024796,519.913288 C976.005978,527.35985 984,541.103714 984,555.975277 L984,812.88446 C984,827.756024 976.005978,841.499888 963.024796,848.946449 L739.096954,977.401041 C726.083142,984.86632 710.038557,984.86632 697.024745,977.401041 L492,859.790075 L286.975255,977.401041 C273.961443,984.86632 257.916858,984.86632 244.903046,977.401041 L20.9752038,848.946449 C7.9940224,841.499888 1.4925415e-13,827.756024 0,812.88446 L0,555.975277 C-7.10734046e-15,541.103714 7.9940224,527.35985 20.9752038,519.913288 L224.060311,403.414982 L224.060311,170.11554 C224.060311,155.243976 232.054333,141.500112 245.035515,134.053551 L468.963357,5.5989595 C481.977169,-1.86631983 498.021754,-1.86631983 511.035566,5.5989595 L734.963408,134.053551 C747.94459,141.500112 755.938612,155.243976 755.938612,170.11554 L755.938612,401.119793 L755.938612,401.119793 Z" id="Shape" fill="#EF5722" fill-rule="nonzero"></path>
    </g>
</svg>
